<svg version="1.1" id="Layer_1" xmlns="http://www.w3.org/2000/svg" xmlns:xlink="http://www.w3.org/1999/xlink" x="0px" y="0px"
	 width="100%" viewBox="0 0 500 500" enable-background="new 0 0 500 500" xml:space="preserve">
<path fill="#FFFFFF" opacity="1.000000" stroke="none" 
	d="
M1.000000,187.000000 
	C1.000000,124.682106 1.000000,62.864212 1.000000,1.023158 
	C167.609604,1.023158 334.219208,1.023158 500.914429,1.023158 
	C500.914429,167.567963 500.914429,334.135986 500.914429,500.851990 
	C334.333435,500.851990 167.666733,500.851990 1.000000,500.851990 
	C1.000000,396.447296 1.000000,291.973663 1.000000,187.000000 
M321.758484,369.805847 
	C324.513275,365.875244 327.268036,361.944641 330.547028,358.459747 
	C330.831940,359.236237 330.923309,360.184235 331.434021,360.760681 
	C334.201385,363.884094 336.560699,368.427094 340.034882,369.603210 
	C344.563538,371.136322 347.517151,366.325531 350.037964,362.835144 
	C352.893890,358.880737 355.472717,354.726196 358.998352,349.413513 
	C358.998352,357.171997 358.839752,363.507721 359.043274,369.831818 
	C359.243927,376.065704 364.056885,384.070923 368.266357,384.818176 
	C374.995422,386.012756 378.037720,380.844574 381.053131,376.310333 
	C384.139252,371.669647 386.752869,366.714722 389.065277,362.765076 
	C388.722900,371.476654 388.156494,381.022247 388.074799,390.572021 
	C388.045685,393.974823 388.806427,397.514282 389.876007,400.771576 
	C392.797272,409.668030 401.981842,411.966797 408.218964,405.119110 
	C412.014648,400.951843 414.787598,395.852966 418.063080,391.110138 
	C417.899292,392.631897 417.734436,394.257935 417.547913,395.881439 
	C416.091461,408.559113 416.983002,420.914764 424.952606,431.427368 
	C427.039948,434.180817 431.354797,436.326263 434.793213,436.555847 
	C436.750122,436.686523 440.029907,432.715057 440.926788,430.000366 
	C443.397034,422.523804 444.925232,414.736053 446.395660,408.806976 
	C448.574097,416.153564 450.618042,425.404755 454.089386,434.085144 
	C457.510101,442.638885 462.852844,450.177795 472.400543,453.224518 
	C478.513336,455.175079 483.352295,451.929504 482.921051,445.574097 
	C482.351868,437.185944 481.041168,428.846069 479.986694,420.493347 
	C478.475311,408.521271 476.476501,396.591888 475.486420,384.578278 
	C474.519958,372.851685 474.267883,361.043091 474.232666,349.268921 
	C474.191223,335.393402 475.219055,321.501709 474.817841,307.645020 
	C474.569794,299.078857 470.871887,291.288910 465.163788,284.645325 
	C455.893066,273.855255 442.973541,271.877960 430.278687,272.380585 
	C418.181885,272.859558 406.222748,276.425476 394.158630,278.356323 
	C390.462036,278.947968 386.618652,278.622467 383.095093,278.111542 
	C406.077362,251.187469 434.260010,231.883926 467.844269,220.644684 
	C472.244293,219.172165 474.709015,216.674210 474.964783,212.244232 
	C475.633606,200.658768 476.261169,189.066010 476.546875,177.467316 
	C476.607819,174.993484 475.150299,172.482254 474.242767,169.404297 
	C473.906464,169.035034 473.589111,168.646210 473.231140,168.299286 
	C427.403412,123.885475 381.552795,79.495216 335.784546,35.020157 
	C332.564484,31.891050 329.383606,31.634516 325.334747,32.861107 
	C298.098907,41.112064 274.343781,55.417965 255.078796,76.113708 
	C241.055725,91.178223 228.878586,107.961082 215.222351,123.854782 
	C210.750580,117.161125 205.119675,110.951195 202.077316,103.661011 
	C197.454544,92.583809 194.813232,80.695213 190.997864,69.262192 
	C184.004456,48.305950 166.878494,37.697186 144.195404,43.807434 
	C124.041183,49.236473 106.070450,59.092239 88.935379,70.692986 
	C71.724808,82.344841 54.069336,93.180313 34.593918,100.748680 
	C28.718151,103.032074 22.707106,105.122986 17.161587,108.063210 
	C9.312431,112.224823 8.681890,118.080078 15.443316,123.818672 
	C23.089073,130.307831 32.569313,129.861267 41.552433,128.441895 
	C49.509808,127.184601 57.196918,124.216888 65.000000,122.000000 
	C65.000000,122.000000 64.995583,121.996529 64.911011,122.671486 
	C64.356369,123.255913 63.799026,123.837791 63.247509,124.425156 
	C58.284321,129.710907 52.879547,134.660507 48.509472,140.398117 
	C45.402992,144.476715 46.607822,148.209213 51.167542,150.290955 
	C54.359917,151.748444 58.174316,152.596619 61.672894,152.488327 
	C71.956535,152.170059 80.726196,147.533661 88.967896,141.726486 
	C90.189995,140.865387 91.741447,140.471695 94.054039,139.463501 
	C91.840195,144.461029 89.707230,148.205750 88.495934,152.228043 
	C85.782669,161.237808 92.879585,168.315079 102.101288,166.152374 
	C113.295433,163.527115 122.055977,156.676361 130.793625,149.760727 
	C131.550262,149.161880 132.489914,148.794296 134.595322,147.624100 
	C132.263275,151.637817 130.530991,154.256088 129.172836,157.055847 
	C127.727371,160.035645 126.360023,163.107635 125.445091,166.279678 
	C123.229843,173.959885 126.685135,179.399948 133.912186,178.787659 
	C138.553650,178.394440 143.287521,176.780746 147.545731,174.786774 
	C152.371338,172.527100 156.711761,169.231323 162.220383,165.787598 
	C161.331711,167.525909 160.853577,168.285507 160.537399,169.107422 
	C158.000610,175.701691 155.194031,182.214188 153.097198,188.947037 
	C151.933334,192.684158 154.552277,194.944153 158.150711,195.472626 
	C161.255875,195.928650 164.432083,195.900711 167.266068,196.740128 
	C164.973618,199.808929 162.734253,202.919098 160.380493,205.940140 
	C137.039810,235.897736 109.812363,260.783752 72.871994,273.015350 
	C69.152061,274.247070 67.264938,277.003113 66.875099,281.720032 
	C65.508713,292.270416 64.577187,302.902710 62.611378,313.340179 
	C61.448681,319.513550 63.272015,323.766144 67.436691,327.882660 
	C70.500610,330.911133 73.083733,334.425018 75.891434,337.713837 
	C112.503075,380.598877 149.100281,423.496338 185.803238,466.303070 
	C186.981415,467.677216 189.248337,468.117889 191.776505,469.134094 
	C199.657288,466.057648 207.606674,463.144958 215.407532,459.877716 
	C260.159882,441.133942 295.659485,411.468079 321.758484,369.805847 
z"/>
<path fill="#E0E0E0" opacity="1.000000" stroke="none" 
	d="
M382.842499,278.717010 
	C386.618652,278.622467 390.462036,278.947968 394.158630,278.356323 
	C406.222748,276.425476 418.181885,272.859558 430.278687,272.380585 
	C442.973541,271.877960 455.893066,273.855255 465.163788,284.645325 
	C470.871887,291.288910 474.569794,299.078857 474.817841,307.645020 
	C475.219055,321.501709 474.191223,335.393402 474.232666,349.268921 
	C474.267883,361.043091 474.519958,372.851685 475.486420,384.578278 
	C476.476501,396.591888 478.475311,408.521271 479.986694,420.493347 
	C481.041168,428.846069 482.351868,437.185944 482.921051,445.574097 
	C483.352295,451.929504 478.513336,455.175079 472.400543,453.224518 
	C462.852844,450.177795 457.510101,442.638885 454.089386,434.085144 
	C450.618042,425.404755 448.574097,416.153564 446.395660,408.806976 
	C444.925232,414.736053 443.397034,422.523804 440.926788,430.000366 
	C440.029907,432.715057 436.750122,436.686523 434.793213,436.555847 
	C431.354797,436.326263 427.039948,434.180817 424.952606,431.427368 
	C416.983002,420.914764 416.091461,408.559113 417.547913,395.881439 
	C417.734436,394.257935 417.899292,392.631897 418.063080,391.110138 
	C414.787598,395.852966 412.014648,400.951843 408.218964,405.119110 
	C401.981842,411.966797 392.797272,409.668030 389.876007,400.771576 
	C388.806427,397.514282 388.045685,393.974823 388.074799,390.572021 
	C388.156494,381.022247 388.722900,371.476654 389.065277,362.765076 
	C386.752869,366.714722 384.139252,371.669647 381.053131,376.310333 
	C378.037720,380.844574 374.995422,386.012756 368.266357,384.818176 
	C364.056885,384.070923 359.243927,376.065704 359.043274,369.831818 
	C358.839752,363.507721 358.998352,357.171997 358.998352,349.413513 
	C355.472717,354.726196 352.893890,358.880737 350.037964,362.835144 
	C347.517151,366.325531 344.563538,371.136322 340.034882,369.603210 
	C336.560699,368.427094 334.201385,363.884094 331.434021,360.760681 
	C330.923309,360.184235 330.831940,359.236237 330.273926,357.802307 
	C329.718872,349.550720 328.287506,341.786926 329.378326,334.395325 
	C332.237549,315.020599 338.785919,297.161652 355.529266,284.619629 
	C360.888092,283.482330 365.877106,282.299042 370.883636,281.195099 
	C374.858795,280.318634 378.855408,279.539429 382.842499,278.717010 
M432.481018,350.894653 
	C430.337494,352.212402 427.374420,355.110168 426.223877,354.513458 
	C423.946655,353.332306 421.495728,350.356781 421.207733,347.879883 
	C420.431030,341.199554 419.952118,334.285248 420.832703,327.660156 
	C422.037781,318.593964 424.607208,309.709106 426.591827,300.746521 
	C426.231812,300.544800 425.871765,300.343109 425.511719,300.141418 
	C422.714508,305.102020 419.540070,309.892822 417.211670,315.064514 
	C414.013397,322.168274 411.595825,329.620758 408.516418,336.783020 
	C407.828094,338.384003 405.803070,340.378510 404.354279,340.410370 
	C402.921570,340.441895 401.079987,338.454926 400.077576,336.921967 
	C399.030365,335.320435 398.023376,333.085846 398.301727,331.335144 
	C399.232483,325.480591 400.626099,319.688293 402.088501,313.934662 
	C402.785431,311.192566 404.037628,308.591614 405.038300,305.926727 
	C396.852753,314.194519 389.944244,322.974915 389.973175,335.192047 
	C390.010193,350.804169 397.150848,355.968719 411.023285,350.641418 
	C412.546570,355.473633 413.586578,360.544312 415.710907,365.110565 
	C419.194946,372.599609 424.898956,373.993958 431.477570,369.189240 
	C434.162842,367.227966 436.178925,364.350464 438.522095,361.865814 
	C439.201050,363.910950 439.732635,366.147400 440.678894,368.191986 
	C441.720032,370.441589 442.981323,372.630890 444.430481,374.641937 
	C448.075714,379.700653 455.311859,382.393005 460.731750,380.901245 
	C464.841766,379.769989 468.766418,374.118256 468.942871,368.277832 
	C469.463593,351.041901 469.185944,333.854401 464.228882,317.073578 
	C464.001373,320.327484 464.155273,323.591766 463.973083,326.837189 
	C463.379150,337.419037 462.766022,348.002106 461.933228,358.566833 
	C461.665283,361.966003 459.730011,364.407684 456.056091,364.990448 
	C452.388611,365.572205 450.500946,363.477478 449.232300,360.470734 
	C448.782043,359.403656 448.300262,358.327911 448.034973,357.208221 
	C445.518707,346.586212 445.519562,335.892395 446.703369,325.077667 
	C447.262238,319.972290 446.799225,314.755035 446.799225,309.588470 
	C446.316803,309.527161 445.834351,309.465820 445.351929,309.404510 
	C442.395233,323.415863 440.738556,337.848022 432.481018,350.894653 
M373.292877,340.613098 
	C381.894348,341.626190 389.243683,333.164612 387.126282,324.169830 
	C386.016693,325.360962 385.068787,326.417999 384.079132,327.434418 
	C378.764343,332.892883 373.458191,331.704346 371.764893,324.268616 
	C370.947021,320.677032 371.397156,316.748688 371.591431,312.989258 
	C371.758942,309.746979 372.377411,306.528015 372.796509,303.298737 
	C372.146759,303.075134 371.497009,302.851562 370.847229,302.627991 
	C369.302795,305.589050 368.054657,308.759338 366.145782,311.463135 
	C363.132904,315.730713 360.125763,320.188660 356.275818,323.624329 
	C352.730377,326.788239 349.232483,324.677979 349.030121,319.833405 
	C348.902008,316.765564 349.006195,313.687958 349.006195,310.083405 
	C345.451752,315.130615 344.181946,320.555328 345.162811,326.076263 
	C345.706970,329.139313 347.584839,333.453247 349.928986,334.321472 
	C352.684448,335.342010 356.750641,333.624878 359.953674,332.352783 
	C362.070099,331.512238 363.667542,329.364838 365.629608,327.689575 
	C366.129028,332.760590 367.382629,337.659393 373.292877,340.613098 
z"/>
<path fill="#E0E0E0" opacity="1.000000" stroke="none" 
	d="
M167.576889,196.086731 
	C164.432083,195.900711 161.255875,195.928650 158.150711,195.472626 
	C154.552277,194.944153 151.933334,192.684158 153.097198,188.947037 
	C155.194031,182.214188 158.000610,175.701691 160.537399,169.107422 
	C160.853577,168.285507 161.331711,167.525909 162.220383,165.787598 
	C156.711761,169.231323 152.371338,172.527100 147.545731,174.786774 
	C143.287521,176.780746 138.553650,178.394440 133.912186,178.787659 
	C126.685135,179.399948 123.229843,173.959885 125.445091,166.279678 
	C126.360023,163.107635 127.727371,160.035645 129.172836,157.055847 
	C130.530991,154.256088 132.263275,151.637817 134.595322,147.624100 
	C132.489914,148.794296 131.550262,149.161880 130.793625,149.760727 
	C122.055977,156.676361 113.295433,163.527115 102.101288,166.152374 
	C92.879585,168.315079 85.782669,161.237808 88.495934,152.228043 
	C89.707230,148.205750 91.840195,144.461029 94.054039,139.463501 
	C91.741447,140.471695 90.189995,140.865387 88.967896,141.726486 
	C80.726196,147.533661 71.956535,152.170059 61.672894,152.488327 
	C58.174316,152.596619 54.359917,151.748444 51.167542,150.290955 
	C46.607822,148.209213 45.402992,144.476715 48.509472,140.398117 
	C52.879547,134.660507 58.284321,129.710907 63.247509,124.425156 
	C63.799026,123.837791 64.356369,123.255913 65.100952,122.286072 
	C65.195038,121.935196 65.099190,121.969734 65.003342,122.004257 
	C57.196918,124.216888 49.509808,127.184601 41.552433,128.441895 
	C32.569313,129.861267 23.089073,130.307831 15.443316,123.818672 
	C8.681890,118.080078 9.312431,112.224823 17.161587,108.063210 
	C22.707106,105.122986 28.718151,103.032074 34.593918,100.748680 
	C54.069336,93.180313 71.724808,82.344841 88.935379,70.692986 
	C106.070450,59.092239 124.041183,49.236473 144.195404,43.807434 
	C166.878494,37.697186 184.004456,48.305950 190.997864,69.262192 
	C194.813232,80.695213 197.454544,92.583809 202.077316,103.661011 
	C205.119675,110.951195 210.750580,117.161125 215.510437,124.200211 
	C215.247330,125.060501 214.696121,125.575356 213.735321,126.056717 
	C207.845215,128.555450 202.273651,130.911621 196.916595,133.682495 
	C193.410904,135.495758 190.438110,138.530426 186.802078,139.831970 
	C184.456711,140.671509 180.937088,140.044495 178.741501,138.736053 
	C177.615662,138.065140 177.474609,134.155899 178.228973,132.237213 
	C179.937958,127.890503 182.478104,123.870583 184.680283,119.717781 
	C176.798065,124.044182 169.765457,129.381119 167.393005,138.225067 
	C166.484848,141.610504 167.254242,146.905609 169.466980,149.216003 
	C171.303497,151.133575 176.411987,150.330154 180.006882,150.010651 
	C182.541916,149.785370 184.969604,148.352173 188.303726,147.148285 
	C187.472580,148.601761 187.155869,149.150940 186.843506,149.702560 
	C179.928101,161.915527 175.210236,174.913513 172.690613,189.037659 
	C170.853409,191.567291 169.215149,193.827026 167.576889,196.086731 
M148.992203,72.488106 
	C150.345612,71.034409 151.699020,69.580711 153.052429,68.127014 
	C151.670151,67.492203 151.050323,67.620399 150.574097,67.953743 
	C141.476135,74.322227 132.454147,80.801414 123.282967,87.062172 
	C119.314812,89.771049 115.243149,92.532784 110.829369,94.296898 
	C108.669266,95.160255 104.292076,94.687256 103.305321,93.217041 
	C102.052544,91.350487 103.140160,87.848999 103.405746,85.070366 
	C103.476517,84.330032 104.093987,83.498840 104.692436,82.973785 
	C112.164551,76.418030 119.633560,69.857002 127.210617,63.423649 
	C129.555908,61.432381 132.224884,59.822350 135.233307,57.692547 
	C133.952087,57.323402 133.588562,57.080204 133.340866,57.167118 
	C119.764252,61.930676 107.011124,68.263306 95.981346,77.620308 
	C90.738251,82.068230 86.300095,87.253601 84.438889,94.151817 
	C82.515511,101.280449 86.042587,106.013557 93.422974,105.988853 
	C95.552429,105.981728 97.748436,105.739769 99.794243,105.173256 
	C103.694588,104.093178 107.508812,102.702103 111.699364,101.328506 
	C110.606071,104.654251 109.483856,107.545181 108.710251,110.526573 
	C106.920685,117.423317 109.904137,122.173553 116.849541,122.852837 
	C120.243645,123.184792 123.793610,122.633644 127.190926,122.024345 
	C130.663055,121.401619 134.034668,120.218338 137.970703,119.137543 
	C137.287903,125.630714 139.000732,130.244629 145.206329,131.484039 
	C147.508057,131.943756 150.137436,131.476654 152.480331,130.887314 
	C160.657883,128.830307 167.164047,124.120148 172.563049,117.701477 
	C170.998688,117.761497 169.728409,118.439415 168.374893,118.825256 
	C164.413727,119.954445 160.465927,121.442024 156.419724,121.838707 
	C154.172043,122.059067 150.323364,120.939583 149.728943,119.428009 
	C148.891647,117.298820 149.697464,113.792198 151.054001,111.679161 
	C154.168961,106.827118 158.082458,102.492653 161.595520,97.889854 
	C165.115341,93.278198 168.542526,88.595825 172.010300,83.944450 
	C171.638718,83.617897 171.267151,83.291351 170.895569,82.964798 
	C166.868958,86.536766 162.844650,90.111359 158.815216,93.680130 
	C151.208923,100.416817 143.423111,106.992371 133.455826,109.875687 
	C130.914139,110.610931 126.762398,110.561340 125.350327,109.029175 
	C124.030029,107.596581 124.698914,103.469086 125.641609,100.959358 
	C130.087479,89.123207 140.145508,81.724930 148.992203,72.488106 
M136.798050,56.736698 
	C136.957993,56.622337 137.117950,56.507973 137.277893,56.393608 
	C137.053665,56.417171 136.829453,56.440731 136.798050,56.736698 
M172.404343,81.493820 
	C172.404343,81.493820 172.521606,81.422729 172.404343,81.493820 
M94.482277,138.615204 
	C94.482277,138.615204 94.399757,138.484756 94.482277,138.615204 
z"/>
<path fill="#048B8F" opacity="1.000000" stroke="none" 
	d="
M214.144928,126.090210 
	C214.696121,125.575356 215.247330,125.060501 215.838501,124.261749 
	C228.878586,107.961082 241.055725,91.178223 255.078796,76.113708 
	C274.343781,55.417965 298.098907,41.112064 325.334747,32.861107 
	C329.383606,31.634516 332.564484,31.891050 335.784546,35.020157 
	C381.552795,79.495216 427.403412,123.885475 473.231140,168.299286 
	C473.589111,168.646210 473.906464,169.035034 473.958923,169.707977 
	C452.585632,175.263046 433.615784,185.035843 416.030670,197.543961 
	C397.002502,211.078537 380.451691,227.359528 365.499023,245.210510 
	C359.788910,252.027405 355.025696,259.637451 349.650726,266.898682 
	C349.470520,266.911285 349.108002,266.919922 349.061829,266.580231 
	C344.717163,261.831329 340.418732,257.422119 336.367432,252.802612 
	C347.516296,241.437408 358.176270,230.032776 369.376556,219.186096 
	C386.104553,202.986160 404.226837,188.498108 424.396942,176.704666 
	C425.027740,176.335846 425.409332,175.540863 425.014526,176.013809 
	C421.429260,169.739410 416.924072,164.476273 415.380493,158.454071 
	C413.660828,151.744858 417.219940,145.264206 422.236877,139.747925 
	C397.735962,115.686440 373.476257,91.861847 349.298035,68.117279 
	C333.315155,77.201981 320.787842,74.705887 309.714813,60.721924 
	C309.056976,59.891144 306.666901,59.487717 305.670837,60.008972 
	C287.005798,69.776398 271.484863,83.612602 257.680328,99.198341 
	C245.493652,112.957504 234.431046,127.712273 222.562958,141.910156 
	C218.787415,138.555878 215.321045,135.318863 211.847992,131.710388 
	C212.609177,129.589340 213.377045,127.839775 214.144928,126.090210 
z"/>
<path fill="#038A8F" opacity="1.000000" stroke="none" 
	d="
M167.421478,196.413437 
	C169.215149,193.827026 170.853409,191.567291 172.975433,189.087402 
	C173.650803,188.885147 173.842392,188.903091 174.195816,189.213165 
	C177.599884,192.963425 180.842133,196.421570 183.807770,200.079926 
	C162.761581,227.155411 139.328857,251.387650 109.914955,272.605835 
	C112.724945,274.398407 114.510345,275.362427 116.096489,276.584930 
	C119.626915,279.305969 120.701584,283.095612 119.890488,287.291046 
	C118.740616,293.238800 115.881355,298.163483 110.441727,301.300171 
	C109.234940,301.996094 108.121231,302.853363 106.640343,303.855896 
	C129.690277,330.323639 152.317917,356.306488 174.860153,382.191254 
	C196.962814,369.799408 200.231934,370.558807 217.933441,392.073090 
	C229.564484,385.591461 239.622986,376.894073 248.803787,367.405762 
	C264.296783,351.393890 277.370331,333.380188 289.774109,314.891296 
	C290.617065,313.634796 292.194489,312.871063 293.597961,311.869873 
	C293.765533,311.861603 293.974304,312.124329 294.009399,312.428955 
	C294.655365,313.178436 295.266205,313.623322 295.919434,314.052826 
	C295.961853,314.037445 295.931061,314.122253 295.970947,314.427795 
	C296.467377,315.040802 296.923950,315.348267 297.249695,315.779907 
	C297.118866,315.904053 297.344727,315.622803 297.346283,315.930145 
	C297.855499,316.516235 298.363129,316.794983 298.913452,317.057770 
	C298.956085,317.041809 298.927887,317.128387 298.967346,317.433472 
	C299.456726,318.058563 299.906708,318.378540 300.263947,318.832825 
	C300.171234,318.967133 300.317352,318.675293 300.325256,318.966187 
	C300.664368,319.398529 300.995514,319.539978 301.345062,319.786560 
	C301.363464,319.891693 301.365845,319.678192 301.274353,320.039124 
	C303.139893,323.289276 305.096985,326.178497 307.025482,329.049072 
	C306.996918,329.030426 307.065033,329.027344 306.753723,329.165741 
	C304.300385,332.883728 302.158356,336.463318 300.009064,340.019440 
	C300.001831,339.995972 300.047241,340.014862 299.685669,340.048157 
	C298.551697,341.407654 297.779297,342.733826 296.978027,344.350647 
	C296.619446,345.088776 296.289795,345.536224 295.641785,346.034119 
	C294.890930,346.737488 294.458466,347.390411 294.010559,348.024963 
	C293.995117,348.006592 294.042145,348.015564 293.810272,348.117218 
	C293.395355,348.494812 293.212311,348.770752 293.015503,349.022888 
	C293.001709,348.999084 293.047668,349.029480 292.815887,349.126221 
	C292.402924,349.496521 292.221771,349.770081 292.029358,350.017731 
	C292.018066,349.991821 292.056946,350.035889 291.789490,350.192261 
	C291.357056,350.930481 291.192108,351.512360 290.935242,352.297119 
	C290.676880,352.762421 290.445465,352.940613 289.896118,353.119202 
	C289.439026,353.484619 289.234955,353.765381 289.016846,354.022095 
	C289.002777,353.998077 289.047272,354.031952 288.816101,354.128296 
	C288.404419,354.497498 288.223938,354.770355 288.033203,355.018677 
	C288.023010,354.994171 288.058197,355.039368 287.793945,355.187286 
	C287.356903,355.898834 287.184052,356.462463 287.003845,357.012939 
	C286.996521,356.999756 287.026306,357.003601 286.789581,357.117676 
	C286.374817,357.527069 286.196777,357.822327 285.934204,358.316711 
	C285.686798,358.769257 285.462372,358.943207 284.918182,359.115814 
	C284.451630,359.474915 284.243317,359.755920 284.018097,360.018463 
	C284.001221,360.000000 284.038055,360.036377 283.807251,360.129547 
	C283.286743,360.421326 283.108704,360.693085 283.022095,361.018982 
	C283.001831,361.000000 283.037628,361.040466 282.789307,361.157104 
	C282.382843,361.596161 282.224731,361.918549 282.076660,362.420746 
	C282.086700,362.600525 282.038239,362.957397 281.709900,363.009399 
	C280.930695,363.721985 280.479858,364.382538 280.029358,365.019379 
	C280.029694,364.995636 280.051514,365.039978 279.701416,365.056610 
	C277.259827,367.402344 275.168396,369.731415 273.068298,372.045380 
	C273.059662,372.030243 273.058990,372.052917 272.796021,372.200653 
	C272.363556,372.910492 272.194092,373.472595 272.013214,374.016357 
	C272.001801,373.998047 272.036987,374.024017 271.708801,374.054749 
	C270.927460,374.735168 270.474304,375.384888 270.010590,376.017029 
	C270.000000,375.999481 270.034851,376.021240 269.706757,376.052490 
	C268.926422,376.733337 268.474182,377.382965 268.010986,378.016296 
	C268.000000,378.000000 268.032684,378.021912 267.699768,378.053833 
	C266.919769,378.756805 266.472656,379.427887 265.902191,380.351807 
	C265.208954,381.074707 264.639038,381.544739 263.691711,382.009918 
	C260.164001,382.958160 257.288147,384.192719 256.933472,388.324463 
	C256.627289,388.772095 256.374603,388.934753 255.695648,389.009247 
	C253.874237,390.347412 252.425613,391.690643 250.787598,393.058411 
	C250.598221,393.082977 250.216354,393.075714 249.951889,393.139862 
	C249.473190,393.482910 249.258957,393.761810 249.022659,394.020752 
	C249.000610,394.000824 249.039520,394.045715 248.807800,394.137634 
	C248.284790,394.425201 248.100876,394.694275 248.018921,395.018433 
	C248.013474,395.000061 248.035950,395.037415 247.678360,395.023682 
	C245.896881,396.026733 244.472992,397.043549 243.035019,398.037201 
	C243.020935,398.014038 243.057068,398.065887 242.726242,398.083618 
	C241.944351,398.752045 241.493301,399.402710 241.020813,400.045593 
	C240.999390,400.037811 241.042282,400.028412 240.810989,400.122009 
	C240.290314,400.408661 240.095825,400.671875 239.997833,401.001984 
	C239.999390,400.998779 240.006088,400.998108 239.623138,400.996887 
	C237.828903,402.003723 236.417633,403.011841 235.002136,404.009979 
	C234.997925,404.000031 235.017899,404.007172 234.676086,404.003540 
	C233.570099,404.352142 232.805939,404.704346 232.020477,405.029968 
	C231.999176,405.003387 232.033890,405.062927 231.730377,405.061371 
	C230.966934,405.392090 230.507019,405.724396 230.031952,406.034973 
	C230.016785,406.013245 230.039078,406.051025 229.807220,406.142883 
	C229.285034,406.432098 229.101959,406.702179 229.018280,407.020508 
	C229.010406,406.996063 229.041687,407.038971 228.735626,407.045166 
	C227.964355,407.386597 227.499130,407.721802 227.016953,408.028503 
	C227.000000,408.000000 227.040543,408.052612 226.735504,408.054016 
	C225.968140,408.390259 225.505829,408.725067 225.021454,409.033600 
	C224.999390,409.007324 225.042755,409.065674 224.673492,409.047668 
	C222.870148,410.008087 221.436081,410.986481 219.636017,412.017944 
	C213.208115,414.395386 207.146194,416.719696 200.638962,419.027771 
	C196.481369,418.334869 192.769073,417.658173 188.775482,416.798920 
	C180.989548,408.206238 173.467621,399.811432 165.983673,391.382874 
	C147.810135,370.915558 129.637039,350.447845 111.498566,329.949493 
	C102.377327,319.641541 93.414307,309.192566 84.221352,298.949493 
	C78.712349,292.811188 72.897575,286.947296 67.220222,280.960052 
	C67.264938,277.003113 69.152061,274.247070 72.871994,273.015350 
	C109.812363,260.783752 137.039810,235.897736 160.380493,205.940140 
	C162.734253,202.919098 164.973618,199.808929 167.421478,196.413437 
z"/>
<path fill="#024344" opacity="1.000000" stroke="none" 
	d="
M67.047661,281.340027 
	C72.897575,286.947296 78.712349,292.811188 84.221352,298.949493 
	C93.414307,309.192566 102.377327,319.641541 111.498566,329.949493 
	C129.637039,350.447845 147.810135,370.915558 165.983673,391.382874 
	C173.467621,399.811432 180.989548,408.206238 188.895065,417.096619 
	C190.531845,419.052032 191.767746,420.527252 193.005722,422.419434 
	C193.143433,423.817566 193.174820,424.826782 193.430405,425.775604 
	C197.070160,439.287170 196.977692,452.493408 190.560638,465.301514 
	C190.097641,466.225616 190.830750,467.748962 191.007721,468.993683 
	C189.248337,468.117889 186.981415,467.677216 185.803238,466.303070 
	C149.100281,423.496338 112.503075,380.598877 75.891434,337.713837 
	C73.083733,334.425018 70.500610,330.911133 67.436691,327.882660 
	C63.272015,323.766144 61.448681,319.513550 62.611378,313.340179 
	C64.577187,302.902710 65.508713,292.270416 67.047661,281.340027 
z"/>
<path fill="#03595B" opacity="1.000000" stroke="none" 
	d="
M191.392120,469.063904 
	C190.830750,467.748962 190.097641,466.225616 190.560638,465.301514 
	C196.977692,452.493408 197.070160,439.287170 193.430405,425.775604 
	C193.174820,424.826782 193.143433,423.817566 193.372040,422.375671 
	C196.185623,420.957977 198.634949,420.001007 201.084274,419.044006 
	C207.146194,416.719696 213.208115,414.395386 219.975403,411.995972 
	C222.134750,410.969147 223.588745,410.017395 225.042755,409.065674 
	C225.042755,409.065674 224.999390,409.007324 225.321854,409.021027 
	C226.109726,408.707336 226.575134,408.379974 227.040527,408.052612 
	C227.040543,408.052612 227.000000,408.000000 227.317184,408.012390 
	C228.103470,407.696198 228.572571,407.367584 229.041687,407.038971 
	C229.041687,407.038971 229.010406,406.996063 229.251205,406.927032 
	C229.674362,406.589020 229.856720,406.320038 230.039093,406.051025 
	C230.039078,406.051025 230.016785,406.013245 230.333633,406.036987 
	C231.111618,405.728119 231.572769,405.395538 232.033905,405.062927 
	C232.033890,405.062927 231.999176,405.003387 232.357147,405.044067 
	C233.482727,404.725586 234.250305,404.366364 235.017899,404.007172 
	C235.017899,404.007172 234.997925,404.000031 235.336304,403.970551 
	C237.118484,402.960083 238.562286,401.979095 240.006088,400.998108 
	C240.006088,400.998108 239.999390,400.998779 240.230881,400.909607 
	C240.655670,400.556458 240.848984,400.292419 241.042282,400.028412 
	C241.042282,400.028412 240.999390,400.037811 241.336304,399.997131 
	C242.134491,399.326294 242.595779,398.696075 243.057068,398.065887 
	C243.057068,398.065887 243.020935,398.014038 243.385315,398.046753 
	C245.178436,397.065430 246.607193,396.051422 248.035950,395.037415 
	C248.035950,395.037415 248.013474,395.000061 248.252411,394.927948 
	C248.674072,394.585785 248.856796,394.315765 249.039520,394.045715 
	C249.039520,394.045715 249.000610,394.000824 249.271393,393.936340 
	C249.766891,393.606476 249.991608,393.341095 250.216339,393.075684 
	C250.216354,393.075714 250.598221,393.082977 251.124207,393.017639 
	C253.122940,391.639618 254.595688,390.326965 256.068420,389.014313 
	C256.374603,388.934753 256.627289,388.772095 257.231506,388.164948 
	C259.780701,385.873962 261.924896,383.944336 264.069153,382.014771 
	C264.639038,381.544739 265.208954,381.074707 266.163025,380.209167 
	C267.042358,379.216400 267.537506,378.619141 268.032684,378.021912 
	C268.032684,378.021912 268.000000,378.000000 268.279938,377.897858 
	C269.051544,377.204224 269.543182,376.612732 270.034851,376.021240 
	C270.034851,376.021240 270.000000,375.999481 270.278961,375.897552 
	C271.050934,375.205078 271.543945,374.614532 272.036987,374.024017 
	C272.036987,374.024017 272.001801,373.998047 272.265930,373.856018 
	C272.706390,373.160278 272.882690,372.606598 273.058990,372.052917 
	C273.058990,372.052917 273.059662,372.030243 273.409515,372.017365 
	C275.856750,369.682983 277.954132,367.361481 280.051514,365.039978 
	C280.051514,365.039978 280.029694,364.995636 280.305542,364.902588 
	C281.066986,364.192139 281.552612,363.574768 282.038239,362.957397 
	C282.038239,362.957397 282.086700,362.600525 282.300049,362.271698 
	C282.688171,361.642059 282.862885,361.341278 283.037628,361.040466 
	C283.037628,361.040466 283.001831,361.000000 283.261719,360.938049 
	C283.693787,360.596191 283.865906,360.316284 284.038055,360.036377 
	C284.038055,360.036377 284.001221,360.000000 284.266205,359.930573 
	C284.746246,359.586670 284.961334,359.312195 285.176392,359.037720 
	C285.462372,358.943207 285.686798,358.769257 286.157532,358.185242 
	C286.652374,357.570953 286.839355,357.287292 287.026306,357.003601 
	C287.026306,357.003601 286.996521,356.999756 287.256836,356.851074 
	C287.697479,356.148041 287.877838,355.593719 288.058197,355.039368 
	C288.058197,355.039368 288.023010,354.994171 288.269623,354.930237 
	C288.693268,354.588165 288.870270,354.310059 289.047272,354.031952 
	C289.047272,354.031952 289.002777,353.998077 289.258423,353.924683 
	C289.725800,353.579041 289.937500,353.306793 290.149200,353.034546 
	C290.445465,352.940613 290.676880,352.762421 291.185913,352.120605 
	C291.704620,351.172791 291.880798,350.604340 292.056946,350.035889 
	C292.056946,350.035889 292.018066,349.991821 292.266724,349.930115 
	C292.692841,349.588745 292.870270,349.309113 293.047668,349.029480 
	C293.047668,349.029480 293.001709,348.999084 293.248779,348.924438 
	C293.677917,348.571747 293.860046,348.293640 294.042145,348.015564 
	C294.042145,348.015564 293.995117,348.006592 294.275208,347.901123 
	C295.023560,347.191650 295.491821,346.587646 295.960114,345.983673 
	C296.289795,345.536224 296.619446,345.088776 297.269501,344.195129 
	C298.408997,342.504211 299.228119,341.259552 300.047241,340.014862 
	C300.047241,340.014862 300.001831,339.995972 300.306671,339.858276 
	C302.762695,336.156128 304.913849,332.591736 307.065002,329.027344 
	C307.065033,329.027344 306.996918,329.030426 307.333679,329.044617 
	C308.285065,329.067078 308.899689,329.075348 309.637299,329.462158 
	C312.817444,340.914429 315.874603,351.988220 318.918823,363.447632 
	C319.643219,365.892242 320.380524,367.951172 321.117828,370.010101 
	C295.659485,411.468079 260.159882,441.133942 215.407532,459.877716 
	C207.606674,463.144958 199.657288,466.057648 191.392120,469.063904 
z"/>
<path fill="#03595B" opacity="1.000000" stroke="none" 
	d="
M349.830933,266.886047 
	C355.025696,259.637451 359.788910,252.027405 365.499023,245.210510 
	C380.451691,227.359528 397.002502,211.078537 416.030670,197.543961 
	C433.615784,185.035843 452.585632,175.263046 474.033691,169.999939 
	C475.150299,172.482254 476.607819,174.993484 476.546875,177.467316 
	C476.261169,189.066010 475.633606,200.658768 474.964783,212.244232 
	C474.709015,216.674210 472.244293,219.172165 467.844269,220.644684 
	C434.260010,231.883926 406.077362,251.187469 382.968811,278.414276 
	C378.855408,279.539429 374.858795,280.318634 370.883636,281.195099 
	C365.877106,282.299042 360.888092,283.482330 355.589691,284.448547 
	C355.287842,284.265686 355.044952,283.995575 355.023346,283.611145 
	C353.278137,277.779816 351.554535,272.332947 349.830933,266.886047 
z"/>
<path fill="#A5A6A6" opacity="1.000000" stroke="none" 
	d="
M355.044952,283.995575 
	C355.044952,283.995575 355.287842,284.265686 355.227417,284.436768 
	C338.785919,297.161652 332.237549,315.020599 329.378326,334.395325 
	C328.287506,341.786926 329.718872,349.550720 330.011780,357.579468 
	C327.268036,361.944641 324.513275,365.875244 321.438171,369.907959 
	C320.380524,367.951172 319.643219,365.892242 319.229309,363.156677 
	C319.692535,359.506836 320.037231,356.526794 319.939178,353.561432 
	C319.272034,333.390503 325.303619,315.218353 337.134094,299.156799 
	C341.757568,292.879791 346.717468,286.244293 355.044952,283.995575 
z"/>
<path fill="#BEBEBE" opacity="1.000000" stroke="none" 
	d="
M432.673645,350.581482 
	C440.738556,337.848022 442.395233,323.415863 445.351929,309.404510 
	C445.834351,309.465820 446.316803,309.527161 446.799225,309.588470 
	C446.799225,314.755035 447.262238,319.972290 446.703369,325.077667 
	C445.519562,335.892395 445.518707,346.586212 448.034973,357.208221 
	C448.300262,358.327911 448.782043,359.403656 449.232300,360.470734 
	C450.500946,363.477478 452.388611,365.572205 456.056091,364.990448 
	C459.730011,364.407684 461.665283,361.966003 461.933228,358.566833 
	C462.766022,348.002106 463.379150,337.419037 463.973083,326.837189 
	C464.155273,323.591766 464.001373,320.327484 464.228882,317.073578 
	C469.185944,333.854401 469.463593,351.041901 468.942871,368.277832 
	C468.766418,374.118256 464.841766,379.769989 460.731750,380.901245 
	C455.311859,382.393005 448.075714,379.700653 444.430481,374.641937 
	C442.981323,372.630890 441.720032,370.441589 440.678894,368.191986 
	C439.732635,366.147400 439.201050,363.910950 438.522095,361.865814 
	C436.178925,364.350464 434.162842,367.227966 431.477570,369.189240 
	C424.898956,373.993958 419.194946,372.599609 415.710907,365.110565 
	C413.586578,360.544312 412.546570,355.473633 411.023285,350.641418 
	C397.150848,355.968719 390.010193,350.804169 389.973175,335.192047 
	C389.944244,322.974915 396.852753,314.194519 405.038300,305.926727 
	C404.037628,308.591614 402.785431,311.192566 402.088501,313.934662 
	C400.626099,319.688293 399.232483,325.480591 398.301727,331.335144 
	C398.023376,333.085846 399.030365,335.320435 400.077576,336.921967 
	C401.079987,338.454926 402.921570,340.441895 404.354279,340.410370 
	C405.803070,340.378510 407.828094,338.384003 408.516418,336.783020 
	C411.595825,329.620758 414.013397,322.168274 417.211670,315.064514 
	C419.540070,309.892822 422.714508,305.102020 425.511719,300.141418 
	C425.871765,300.343109 426.231812,300.544800 426.591827,300.746521 
	C424.607208,309.709106 422.037781,318.593964 420.832703,327.660156 
	C419.952118,334.285248 420.431030,341.199554 421.207733,347.879883 
	C421.495728,350.356781 423.946655,353.332306 426.223877,354.513458 
	C427.374420,355.110168 430.337494,352.212402 432.673645,350.581482 
z"/>
<path fill="#BFBFBF" opacity="1.000000" stroke="none" 
	d="
M372.941925,340.444641 
	C367.382629,337.659393 366.129028,332.760590 365.629608,327.689575 
	C363.667542,329.364838 362.070099,331.512238 359.953674,332.352783 
	C356.750641,333.624878 352.684448,335.342010 349.928986,334.321472 
	C347.584839,333.453247 345.706970,329.139313 345.162811,326.076263 
	C344.181946,320.555328 345.451752,315.130615 349.006195,310.083405 
	C349.006195,313.687958 348.902008,316.765564 349.030121,319.833405 
	C349.232483,324.677979 352.730377,326.788239 356.275818,323.624329 
	C360.125763,320.188660 363.132904,315.730713 366.145782,311.463135 
	C368.054657,308.759338 369.302795,305.589050 370.847229,302.627991 
	C371.497009,302.851562 372.146759,303.075134 372.796509,303.298737 
	C372.377411,306.528015 371.758942,309.746979 371.591431,312.989258 
	C371.397156,316.748688 370.947021,320.677032 371.764893,324.268616 
	C373.458191,331.704346 378.764343,332.892883 384.079132,327.434418 
	C385.068787,326.417999 386.016693,325.360962 387.126282,324.169830 
	C389.243683,333.164612 381.894348,341.626190 372.941925,340.444641 
z"/>
<path fill="#BEBEBE" opacity="1.000000" stroke="none" 
	d="
M148.743164,72.736099 
	C140.145508,81.724930 130.087479,89.123207 125.641609,100.959358 
	C124.698914,103.469086 124.030029,107.596581 125.350327,109.029175 
	C126.762398,110.561340 130.914139,110.610931 133.455826,109.875687 
	C143.423111,106.992371 151.208923,100.416817 158.815216,93.680130 
	C162.844650,90.111359 166.868958,86.536766 170.895569,82.964798 
	C171.267151,83.291351 171.638718,83.617897 172.010300,83.944450 
	C168.542526,88.595825 165.115341,93.278198 161.595520,97.889854 
	C158.082458,102.492653 154.168961,106.827118 151.054001,111.679161 
	C149.697464,113.792198 148.891647,117.298820 149.728943,119.428009 
	C150.323364,120.939583 154.172043,122.059067 156.419724,121.838707 
	C160.465927,121.442024 164.413727,119.954445 168.374893,118.825256 
	C169.728409,118.439415 170.998688,117.761497 172.563049,117.701477 
	C167.164047,124.120148 160.657883,128.830307 152.480331,130.887314 
	C150.137436,131.476654 147.508057,131.943756 145.206329,131.484039 
	C139.000732,130.244629 137.287903,125.630714 137.970703,119.137543 
	C134.034668,120.218338 130.663055,121.401619 127.190926,122.024345 
	C123.793610,122.633644 120.243645,123.184792 116.849541,122.852837 
	C109.904137,122.173553 106.920685,117.423317 108.710251,110.526573 
	C109.483856,107.545181 110.606071,104.654251 111.699364,101.328506 
	C107.508812,102.702103 103.694588,104.093178 99.794243,105.173256 
	C97.748436,105.739769 95.552429,105.981728 93.422974,105.988853 
	C86.042587,106.013557 82.515511,101.280449 84.438889,94.151817 
	C86.300095,87.253601 90.738251,82.068230 95.981346,77.620308 
	C107.011124,68.263306 119.764252,61.930676 133.340866,57.167118 
	C133.588562,57.080204 133.952087,57.323402 135.233307,57.692547 
	C132.224884,59.822350 129.555908,61.432381 127.210617,63.423649 
	C119.633560,69.857002 112.164551,76.418030 104.692436,82.973785 
	C104.093987,83.498840 103.476517,84.330032 103.405746,85.070366 
	C103.140160,87.848999 102.052544,91.350487 103.305321,93.217041 
	C104.292076,94.687256 108.669266,95.160255 110.829369,94.296898 
	C115.243149,92.532784 119.314812,89.771049 123.282967,87.062172 
	C132.454147,80.801414 141.476135,74.322227 150.574097,67.953743 
	C151.050323,67.620399 151.670151,67.492203 153.052429,68.127014 
	C151.699020,69.580711 150.345612,71.034409 148.743164,72.736099 
z"/>
<path fill="#BEBEBE" opacity="1.000000" stroke="none" 
	d="
M174.033997,188.921021 
	C173.842392,188.903091 173.650803,188.885147 173.174377,188.817474 
	C175.210236,174.913513 179.928101,161.915527 186.843506,149.702560 
	C187.155869,149.150940 187.472580,148.601761 188.303726,147.148285 
	C184.969604,148.352173 182.541916,149.785370 180.006882,150.010651 
	C176.411987,150.330154 171.303497,151.133575 169.466980,149.216003 
	C167.254242,146.905609 166.484848,141.610504 167.393005,138.225067 
	C169.765457,129.381119 176.798065,124.044182 184.680283,119.717781 
	C182.478104,123.870583 179.937958,127.890503 178.228973,132.237213 
	C177.474609,134.155899 177.615662,138.065140 178.741501,138.736053 
	C180.937088,140.044495 184.456711,140.671509 186.802078,139.831970 
	C190.438110,138.530426 193.410904,135.495758 196.916595,133.682495 
	C202.273651,130.911621 207.845215,128.555450 213.735321,126.056717 
	C213.377045,127.839775 212.609177,129.589340 211.566742,131.872437 
	C204.501434,142.344910 197.590179,152.204224 190.956314,162.246780 
	C185.153534,171.031174 179.662659,180.021606 174.033997,188.921021 
z"/>
<path fill="#BEBEBE" opacity="1.000000" stroke="none" 
	d="
M136.701630,56.600494 
	C136.829453,56.440731 137.053665,56.417171 137.277893,56.393608 
	C137.117950,56.507973 136.957993,56.622337 136.701630,56.600494 
z"/>
<path fill="#FFFFFF" opacity="1.000000" stroke="none" 
	d="
M65.001671,122.002136 
	C65.099190,121.969734 65.195038,121.935196 65.143234,121.948593 
	C64.995583,121.996529 65.000000,122.000000 65.001671,122.002136 
z"/>
<path fill="#BEBEBE" opacity="1.000000" stroke="none" 
	d="
M172.462982,81.458275 
	C172.521606,81.422729 172.404343,81.493820 172.462982,81.458275 
z"/>
<path fill="#FFFFFF" opacity="1.000000" stroke="none" 
	d="
M94.441017,138.549988 
	C94.399757,138.484756 94.482277,138.615204 94.441017,138.549988 
z"/>
<path fill="#EDE1DE" opacity="1.000000" stroke="none" 
	d="
M174.195831,189.213165 
	C179.662659,180.021606 185.153534,171.031174 190.956314,162.246780 
	C197.590179,152.204224 204.501434,142.344910 211.573425,132.243912 
	C215.321045,135.318863 218.787415,138.555878 222.686401,142.224152 
	C224.739838,144.140869 226.360672,145.626343 228.115326,147.408905 
	C233.157288,152.467255 238.065399,157.228500 243.076172,162.312347 
	C258.967194,178.070618 274.696075,193.567810 290.567749,208.917313 
	C299.133118,217.200882 307.942841,225.231812 316.696594,233.307114 
	C316.750885,233.237503 316.588226,233.306168 316.610870,233.534332 
	C316.633514,233.762497 317.001923,234.035553 317.107117,234.351868 
	C322.099915,239.425934 326.987488,244.183670 332.021790,249.238281 
	C333.485779,250.694397 334.803040,251.853653 336.120300,253.012894 
	C340.418732,257.422119 344.717163,261.831329 348.752991,266.746521 
	C337.845978,283.150208 327.126831,298.998718 316.610504,314.980652 
	C314.020966,318.916046 312.092102,323.286224 309.579437,327.249542 
	C306.654816,324.587769 304.010345,322.132965 301.365845,319.678192 
	C301.365845,319.678192 301.363464,319.891693 301.267090,319.542480 
	C300.886230,319.020599 300.601807,318.847931 300.317352,318.675293 
	C300.317352,318.675293 300.171234,318.967133 300.191223,318.559326 
	C299.783447,317.810455 299.355652,317.469421 298.927887,317.128387 
	C298.927887,317.128387 298.956085,317.041809 298.827118,316.790863 
	C298.247009,316.234192 297.795868,315.928497 297.344727,315.622803 
	C297.344727,315.622803 297.118866,315.904053 297.170593,315.509583 
	C296.791931,314.784180 296.361481,314.453217 295.931061,314.122253 
	C295.931061,314.122253 295.961853,314.037445 295.849091,313.773499 
	C295.148987,313.047791 294.561646,312.586060 293.974304,312.124329 
	C293.974304,312.124329 293.765533,311.861603 293.407867,311.580383 
	C291.647614,309.823120 290.245056,308.347137 288.736206,306.576477 
	C268.518463,285.725464 248.450607,265.126099 228.279587,244.628265 
	C215.474762,231.615952 202.516464,218.754639 189.423065,205.540802 
	C187.507538,203.463913 185.795959,201.671814 184.084381,199.879715 
	C180.842133,196.421570 177.599884,192.963425 174.195831,189.213165 
z"/>
<path fill="#015C5F" opacity="1.000000" stroke="none" 
	d="
M227.981491,147.111816 
	C226.360672,145.626343 224.739838,144.140869 222.995544,142.341431 
	C234.431046,127.712273 245.493652,112.957504 257.680328,99.198341 
	C271.484863,83.612602 287.005798,69.776398 305.670837,60.008972 
	C306.666901,59.487717 309.056976,59.891144 309.714813,60.721924 
	C320.787842,74.705887 333.315155,77.201981 349.298035,68.117279 
	C373.476257,91.861847 397.735962,115.686440 422.236877,139.747925 
	C417.219940,145.264206 413.660828,151.744858 415.380493,158.454071 
	C416.924072,164.476273 421.429260,169.739410 425.014526,176.013809 
	C425.409332,175.540863 425.027740,176.335846 424.396942,176.704666 
	C404.226837,188.498108 386.104553,202.986160 369.376556,219.186096 
	C358.176270,230.032776 347.516296,241.437408 336.367432,252.802612 
	C334.803040,251.853653 333.485779,250.694397 332.084106,248.901169 
	C334.067810,245.906296 336.137390,243.546661 338.203857,241.184311 
	C353.680786,223.491333 370.867676,207.585785 389.234589,192.973572 
	C397.505615,186.393387 406.241730,180.397797 415.011322,173.957397 
	C405.783112,163.296234 407.218262,152.044632 412.717957,140.481049 
	C412.301971,139.971054 411.929718,139.416168 411.463287,138.956985 
	C391.170410,118.980614 370.869202,99.012703 350.569000,79.043755 
	C350.450195,78.926895 350.347870,78.732849 350.210785,78.704170 
	C348.424347,78.330429 346.341919,77.201462 344.888214,77.744972 
	C331.191864,82.865807 319.097656,80.063354 308.337860,70.681374 
	C305.955139,68.603760 303.853912,68.583984 301.645111,70.236465 
	C294.076996,75.898430 286.167206,81.203156 279.174072,87.515312 
	C259.602631,105.180939 243.245880,125.698235 227.981491,147.111816 
z"/>
<path fill="#C0C1C1" opacity="1.000000" stroke="none" 
	d="
M309.859558,327.456543 
	C312.092102,323.286224 314.020966,318.916046 316.610504,314.980652 
	C327.126831,298.998718 337.845978,283.150208 348.799194,267.086212 
	C349.108002,266.919922 349.470520,266.911285 349.650726,266.898682 
	C351.554535,272.332947 353.278137,277.779816 355.023346,283.611145 
	C346.717468,286.244293 341.757568,292.879791 337.134094,299.156799 
	C325.303619,315.218353 319.272034,333.390503 319.939178,353.561432 
	C320.037231,356.526794 319.692535,359.506836 319.242249,362.771027 
	C315.874603,351.988220 312.817444,340.914429 309.746765,329.204529 
	C309.775330,328.197754 309.817444,327.827148 309.859558,327.456543 
z"/>
<path fill="#015C5F" opacity="1.000000" stroke="none" 
	d="
M288.842468,306.871124 
	C290.245056,308.347137 291.647614,309.823120 293.240295,311.588623 
	C292.194489,312.871063 290.617065,313.634796 289.774109,314.891296 
	C277.370331,333.380188 264.296783,351.393890 248.803787,367.405762 
	C239.622986,376.894073 229.564484,385.591461 217.933441,392.073090 
	C200.231934,370.558807 196.962814,369.799408 174.860153,382.191254 
	C152.317917,356.306488 129.690277,330.323639 106.640343,303.855896 
	C108.121231,302.853363 109.234940,301.996094 110.441727,301.300171 
	C115.881355,298.163483 118.740616,293.238800 119.890488,287.291046 
	C120.701584,283.095612 119.626915,279.305969 116.096489,276.584930 
	C114.510345,275.362427 112.724945,274.398407 109.914955,272.605835 
	C139.328857,251.387650 162.761581,227.155411 183.807770,200.079926 
	C185.795959,201.671814 187.507538,203.463913 189.034790,205.591278 
	C185.056351,210.035217 181.022171,213.949463 177.509628,218.286209 
	C162.299927,237.064865 145.380295,254.104065 126.185585,268.790680 
	C123.089233,271.159821 122.875580,272.878113 124.430504,276.195740 
	C125.852623,279.230011 126.935493,282.811951 126.808510,286.100067 
	C126.567772,292.333740 124.385834,298.139191 119.795204,302.680969 
	C117.922768,304.533478 117.518356,306.062714 119.537598,308.145264 
	C122.537323,311.239044 125.349663,314.519501 128.162766,317.788452 
	C143.939133,336.121460 159.691772,354.474854 175.334717,372.684143 
	C175.987167,372.610474 176.405136,372.692505 176.618469,372.520630 
	C188.252777,363.146088 209.584015,367.792664 217.816132,379.975677 
	C218.456528,380.923401 221.632767,381.392242 222.599075,380.681488 
	C228.194397,376.565887 233.768463,372.335266 238.816391,367.577728 
	C253.733521,353.518677 265.932953,337.168182 277.784210,320.531616 
	C281.176880,315.769104 285.140594,311.413391 288.842468,306.871124 
z"/>
<path fill="#2D8C8F" opacity="1.000000" stroke="none" 
	d="
M309.579437,327.249542 
	C309.817444,327.827148 309.775330,328.197754 309.623779,328.825989 
	C308.899689,329.075348 308.285065,329.067078 307.362244,329.063263 
	C305.096985,326.178497 303.139893,323.289276 301.274353,320.039124 
	C304.010345,322.132965 306.654816,324.587769 309.579437,327.249542 
z"/>
<path fill="#128285" opacity="1.000000" stroke="none" 
	d="
M200.638962,419.027802 
	C198.634949,420.001007 196.185623,420.957977 193.369965,421.958679 
	C191.767746,420.527252 190.531845,419.052032 189.176361,417.279175 
	C192.769073,417.658173 196.481369,418.334869 200.638962,419.027802 
z"/>
<path fill="#2D8C8F" opacity="1.000000" stroke="none" 
	d="
M306.753723,329.165741 
	C304.913849,332.591736 302.762695,336.156128 300.313904,339.881714 
	C302.158356,336.463318 304.300385,332.883728 306.753723,329.165741 
z"/>
<path fill="#18878A" opacity="1.000000" stroke="none" 
	d="
M279.701416,365.056610 
	C277.954132,367.361481 275.856750,369.682983 273.418152,372.032501 
	C275.168396,369.731415 277.259827,367.402344 279.701416,365.056610 
z"/>
<path fill="#18878A" opacity="1.000000" stroke="none" 
	d="
M263.691711,382.009888 
	C261.924896,383.944336 259.780701,385.873962 257.338470,387.963074 
	C257.288147,384.192719 260.164001,382.958160 263.691711,382.009888 
z"/>
<path fill="#18878A" opacity="1.000000" stroke="none" 
	d="
M255.695648,389.009247 
	C254.595688,390.326965 253.122940,391.639618 251.313599,392.993073 
	C252.425613,391.690643 253.874237,390.347412 255.695648,389.009247 
z"/>
<path fill="#18878A" opacity="1.000000" stroke="none" 
	d="
M224.673492,409.047668 
	C223.588745,410.017395 222.134750,410.969147 220.341370,411.942871 
	C221.436081,410.986481 222.870148,410.008087 224.673492,409.047668 
z"/>
<path fill="#18878A" opacity="1.000000" stroke="none" 
	d="
M239.623138,400.996887 
	C238.562286,401.979095 237.118484,402.960083 235.340515,403.980499 
	C236.417633,403.011841 237.828903,402.003723 239.623138,400.996887 
z"/>
<path fill="#18878A" opacity="1.000000" stroke="none" 
	d="
M247.678360,395.023682 
	C246.607193,396.051422 245.178436,397.065430 243.399384,398.069885 
	C244.472992,397.043549 245.896881,396.026733 247.678360,395.023682 
z"/>
<path fill="#2D8C8F" opacity="1.000000" stroke="none" 
	d="
M299.685669,340.048157 
	C299.228119,341.259552 298.408997,342.504211 297.298401,343.904449 
	C297.779297,342.733826 298.551697,341.407654 299.685669,340.048157 
z"/>
<path fill="#18878A" opacity="1.000000" stroke="none" 
	d="
M242.726242,398.083618 
	C242.595779,398.696075 242.134491,399.326294 241.357727,400.004944 
	C241.493301,399.402710 241.944351,398.752045 242.726242,398.083618 
z"/>
<path fill="#1B898E" opacity="1.000000" stroke="none" 
	d="
M281.709900,363.009399 
	C281.552612,363.574768 281.066986,364.192139 280.305176,364.926331 
	C280.479858,364.382538 280.930695,363.721985 281.709900,363.009399 
z"/>
<path fill="#18878A" opacity="1.000000" stroke="none" 
	d="
M271.708801,374.054749 
	C271.543945,374.614532 271.050934,375.205078 270.289551,375.915100 
	C270.474304,375.384888 270.927460,374.735168 271.708801,374.054749 
z"/>
<path fill="#18878A" opacity="1.000000" stroke="none" 
	d="
M269.706726,376.052490 
	C269.543182,376.612732 269.051544,377.204224 268.290894,377.914124 
	C268.474182,377.382965 268.926422,376.733337 269.706726,376.052490 
z"/>
<path fill="#18878A" opacity="1.000000" stroke="none" 
	d="
M267.699768,378.053833 
	C267.537506,378.619141 267.042358,379.216400 266.286377,379.956299 
	C266.472656,379.427887 266.919769,378.756805 267.699768,378.053833 
z"/>
<path fill="#2D8C8F" opacity="1.000000" stroke="none" 
	d="
M295.641785,346.034119 
	C295.491821,346.587646 295.023560,347.191650 294.290619,347.919495 
	C294.458466,347.390411 294.890930,346.737488 295.641785,346.034119 
z"/>
<path fill="#18878A" opacity="1.000000" stroke="none" 
	d="
M234.676086,404.003540 
	C234.250305,404.366364 233.482727,404.725586 232.378448,405.070679 
	C232.805939,404.704346 233.570099,404.352142 234.676086,404.003540 
z"/>
<path fill="#2D8C8F" opacity="1.000000" stroke="none" 
	d="
M294.009399,312.428955 
	C294.561646,312.586060 295.148987,313.047791 295.806702,313.788879 
	C295.266205,313.623322 294.655365,313.178436 294.009399,312.428955 
z"/>
<path fill="#18878A" opacity="1.000000" stroke="none" 
	d="
M231.730377,405.061401 
	C231.572769,405.395538 231.111618,405.728119 230.348785,406.058716 
	C230.507019,405.724396 230.966934,405.392090 231.730377,405.061401 
z"/>
<path fill="#18878A" opacity="1.000000" stroke="none" 
	d="
M228.735626,407.045166 
	C228.572571,407.367584 228.103470,407.696198 227.334137,408.040894 
	C227.499130,407.721802 227.964355,407.386597 228.735626,407.045166 
z"/>
<path fill="#18878A" opacity="1.000000" stroke="none" 
	d="
M272.796021,372.200653 
	C272.882690,372.606598 272.706390,373.160278 272.277344,373.874329 
	C272.194092,373.472595 272.363556,372.910492 272.796021,372.200653 
z"/>
<path fill="#18878A" opacity="1.000000" stroke="none" 
	d="
M226.735489,408.054016 
	C226.575134,408.379974 226.109726,408.707336 225.343933,409.047302 
	C225.505829,408.725067 225.968140,408.390259 226.735489,408.054016 
z"/>
<path fill="#2D8C8F" opacity="1.000000" stroke="none" 
	d="
M295.970947,314.427795 
	C296.361481,314.453217 296.791931,314.784180 297.301422,315.385437 
	C296.923950,315.348267 296.467377,315.040802 295.970947,314.427795 
z"/>
<path fill="#2D8C8F" opacity="1.000000" stroke="none" 
	d="
M297.346283,315.930145 
	C297.795868,315.928497 298.247009,316.234192 298.784485,316.806824 
	C298.363129,316.794983 297.855499,316.516235 297.346283,315.930145 
z"/>
<path fill="#2D8C8F" opacity="1.000000" stroke="none" 
	d="
M298.967346,317.433472 
	C299.355652,317.469421 299.783447,317.810455 300.283936,318.425018 
	C299.906708,318.378540 299.456726,318.058563 298.967346,317.433472 
z"/>
<path fill="#1B898E" opacity="1.000000" stroke="none" 
	d="
M287.793945,355.187286 
	C287.877838,355.593719 287.697479,356.148041 287.264160,356.864258 
	C287.184052,356.462463 287.356903,355.898834 287.793945,355.187286 
z"/>
<path fill="#1B898E" opacity="1.000000" stroke="none" 
	d="
M291.789490,350.192261 
	C291.880798,350.604340 291.704620,351.172791 291.277802,351.917725 
	C291.192108,351.512360 291.357056,350.930481 291.789490,350.192261 
z"/>
<path fill="#1B898E" opacity="1.000000" stroke="none" 
	d="
M292.815887,349.126221 
	C292.870270,349.309113 292.692841,349.588745 292.278015,349.955994 
	C292.221771,349.770081 292.402924,349.496521 292.815887,349.126221 
z"/>
<path fill="#2D8C8F" opacity="1.000000" stroke="none" 
	d="
M300.325256,318.966187 
	C300.601807,318.847931 300.886230,319.020599 301.248657,319.437317 
	C300.995514,319.539978 300.664368,319.398529 300.325256,318.966187 
z"/>
<path fill="#18878A" opacity="1.000000" stroke="none" 
	d="
M229.807220,406.142883 
	C229.856720,406.320038 229.674362,406.589020 229.259064,406.951477 
	C229.101959,406.702179 229.285034,406.432098 229.807220,406.142883 
z"/>
<path fill="#18878A" opacity="1.000000" stroke="none" 
	d="
M240.810989,400.122009 
	C240.848984,400.292419 240.655670,400.556458 240.229309,400.912842 
	C240.095825,400.671875 240.290314,400.408661 240.810989,400.122009 
z"/>
<path fill="#1B898E" opacity="1.000000" stroke="none" 
	d="
M293.810272,348.117218 
	C293.860046,348.293640 293.677917,348.571747 293.262543,348.948242 
	C293.212311,348.770752 293.395355,348.494812 293.810272,348.117218 
z"/>
<path fill="#18878A" opacity="1.000000" stroke="none" 
	d="
M248.807800,394.137634 
	C248.856796,394.315765 248.674072,394.585785 248.257843,394.946289 
	C248.100876,394.694275 248.284790,394.425201 248.807800,394.137634 
z"/>
<path fill="#18878A" opacity="1.000000" stroke="none" 
	d="
M249.951874,393.139832 
	C249.991608,393.341095 249.766891,393.606476 249.293442,393.956299 
	C249.258957,393.761810 249.473190,393.482910 249.951874,393.139832 
z"/>
<path fill="#1B898E" opacity="1.000000" stroke="none" 
	d="
M289.896118,353.119202 
	C289.937500,353.306793 289.725800,353.579041 289.272491,353.948700 
	C289.234955,353.765381 289.439026,353.484619 289.896118,353.119202 
z"/>
<path fill="#1B898E" opacity="1.000000" stroke="none" 
	d="
M288.816101,354.128296 
	C288.870270,354.310059 288.693268,354.588165 288.279846,354.954712 
	C288.223938,354.770355 288.404419,354.497498 288.816101,354.128296 
z"/>
<path fill="#1B898E" opacity="1.000000" stroke="none" 
	d="
M286.789581,357.117676 
	C286.839355,357.287292 286.652374,357.570953 286.242065,357.986145 
	C286.196777,357.822327 286.374817,357.527069 286.789581,357.117676 
z"/>
<path fill="#1B898E" opacity="1.000000" stroke="none" 
	d="
M284.918182,359.115814 
	C284.961334,359.312195 284.746246,359.586670 284.283081,359.949036 
	C284.243317,359.755920 284.451630,359.474915 284.918182,359.115814 
z"/>
<path fill="#1B898E" opacity="1.000000" stroke="none" 
	d="
M283.807251,360.129547 
	C283.865906,360.316284 283.693787,360.596191 283.281982,360.957031 
	C283.108704,360.693085 283.286743,360.421326 283.807251,360.129547 
z"/>
<path fill="#1B898E" opacity="1.000000" stroke="none" 
	d="
M282.789307,361.157104 
	C282.862885,361.341278 282.688171,361.642059 282.290039,362.091919 
	C282.224731,361.918549 282.382843,361.596161 282.789307,361.157104 
z"/>
<path fill="#048B90" opacity="1.000000" stroke="none" 
	d="
M288.736206,306.576477 
	C285.140594,311.413391 281.176880,315.769104 277.784210,320.531616 
	C265.932953,337.168182 253.733521,353.518677 238.816391,367.577728 
	C233.768463,372.335266 228.194397,376.565887 222.599075,380.681488 
	C221.632767,381.392242 218.456528,380.923401 217.816132,379.975677 
	C209.584015,367.792664 188.252777,363.146088 176.618469,372.520630 
	C176.405136,372.692505 175.987167,372.610474 175.334717,372.684143 
	C159.691772,354.474854 143.939133,336.121460 128.162766,317.788452 
	C125.349663,314.519501 122.537323,311.239044 119.537598,308.145264 
	C117.518356,306.062714 117.922768,304.533478 119.795204,302.680969 
	C124.385834,298.139191 126.567772,292.333740 126.808510,286.100067 
	C126.935493,282.811951 125.852623,279.230011 124.430504,276.195740 
	C122.875580,272.878113 123.089233,271.159821 126.185585,268.790680 
	C145.380295,254.104065 162.299927,237.064865 177.509628,218.286209 
	C181.022171,213.949463 185.056351,210.035217 189.238739,205.876068 
	C202.516464,218.754639 215.474762,231.615952 228.279587,244.628265 
	C248.450607,265.126099 268.518463,285.725464 288.736206,306.576477 
M195.675308,332.068420 
	C193.355728,334.346710 194.863541,335.844391 196.710983,337.324493 
	C201.694168,341.317078 207.331680,344.172943 213.721329,343.053650 
	C219.288116,342.078400 224.616882,339.744354 231.798325,337.453186 
	C233.957687,337.639557 234.859558,347.040009 240.784317,341.797089 
	C247.805008,335.584320 236.506470,334.171509 237.092072,329.130829 
	C237.512024,328.479431 238.160583,327.510406 238.772385,326.518677 
	C244.905579,316.576782 244.738113,307.511597 238.273834,299.115387 
	C231.236023,289.974243 221.962555,287.071991 210.806686,290.589478 
	C208.435440,291.337128 206.166748,292.421936 203.779877,293.102692 
	C202.658920,293.422424 200.846725,293.676117 200.236755,293.068024 
	C193.553070,286.405212 187.045013,279.566193 180.489273,272.775024 
	C180.632889,272.223907 180.776505,271.672791 180.920120,271.121674 
	C183.736282,271.121674 186.679642,270.606628 189.333878,271.262238 
	C192.155334,271.959167 194.909286,273.468994 197.325806,275.150970 
	C202.023148,278.420502 203.452576,273.871735 205.756104,271.820831 
	C208.534027,269.347565 206.020813,267.744080 204.282761,266.263062 
	C198.267105,261.137085 191.310883,258.567230 183.473099,260.073090 
	C179.672897,260.803192 176.119873,262.819855 171.586349,264.593933 
	C169.888962,262.653290 167.981750,260.337128 165.926498,258.160736 
	C163.833267,255.944107 161.875412,256.621765 159.937958,258.592346 
	C158.039825,260.522919 157.243439,262.326843 159.503845,264.556458 
	C161.733414,266.755646 163.838608,269.080933 166.000229,271.352814 
	C165.350830,272.363098 164.888535,273.051941 164.456314,273.759155 
	C156.024185,287.555908 161.217575,303.513184 176.252792,309.575714 
	C183.342621,312.434479 190.302551,310.971466 197.177521,308.365234 
	C198.559525,307.841309 200.907349,307.279083 201.616577,307.966248 
	C208.754364,314.881622 215.643158,322.054016 222.963608,329.523071 
	C217.084381,332.885071 211.620361,333.731995 206.764633,330.187317 
	C202.292328,326.922516 199.193054,327.243286 195.675308,332.068420 
z"/>
<path fill="#018A8F" opacity="1.000000" stroke="none" 
	d="
M228.115326,147.408905 
	C243.245880,125.698235 259.602631,105.180939 279.174072,87.515312 
	C286.167206,81.203156 294.076996,75.898430 301.645111,70.236465 
	C303.853912,68.583984 305.955139,68.603760 308.337860,70.681374 
	C319.097656,80.063354 331.191864,82.865807 344.888214,77.744972 
	C346.341919,77.201462 348.424347,78.330429 350.210785,78.704170 
	C350.347870,78.732849 350.450195,78.926895 350.569000,79.043755 
	C370.869202,99.012703 391.170410,118.980614 411.463287,138.956985 
	C411.929718,139.416168 412.301971,139.971054 412.717957,140.481049 
	C407.218262,152.044632 405.783112,163.296234 415.011322,173.957397 
	C406.241730,180.397797 397.505615,186.393387 389.234589,192.973572 
	C370.867676,207.585785 353.680786,223.491333 338.203857,241.184311 
	C336.137390,243.546661 334.067810,245.906296 331.937378,248.604279 
	C326.987488,244.183670 322.099915,239.425934 317.269348,234.222672 
	C317.080353,233.620148 316.834290,233.463150 316.588226,233.306152 
	C316.588226,233.306168 316.750885,233.237503 316.841309,232.934265 
	C317.343445,232.145844 317.658295,231.424042 318.181000,231.210037 
	C331.810883,225.629944 341.718842,216.107574 348.375702,203.040710 
	C352.709229,194.534409 354.160645,185.313324 353.598541,176.069229 
	C353.221710,169.872070 350.952667,163.718552 349.041779,157.700638 
	C344.782318,144.286224 335.051666,135.620087 323.208710,128.926834 
	C312.961823,123.135643 301.690247,122.050301 290.419037,123.167488 
	C277.011017,124.496468 265.132904,130.088867 256.651337,140.877060 
	C251.490372,147.441574 247.493362,154.921188 242.973511,161.989761 
	C238.065399,157.228500 233.157288,152.467255 228.115326,147.408905 
z"/>
<path fill="#017175" opacity="1.000000" stroke="none" 
	d="
M243.076172,162.312347 
	C247.493362,154.921188 251.490372,147.441574 256.651337,140.877060 
	C265.132904,130.088867 277.011017,124.496468 290.419037,123.167488 
	C301.690247,122.050301 312.961823,123.135643 323.208710,128.926834 
	C335.051666,135.620087 344.782318,144.286224 349.041779,157.700638 
	C350.952667,163.718552 353.221710,169.872070 353.598541,176.069229 
	C354.160645,185.313324 352.709229,194.534409 348.375702,203.040710 
	C341.718842,216.107574 331.810883,225.629944 318.181000,231.210037 
	C317.658295,231.424042 317.343445,232.145844 316.787018,233.003876 
	C307.942841,225.231812 299.133118,217.200882 290.567749,208.917313 
	C274.696075,193.567810 258.967194,178.070618 243.076172,162.312347 
z"/>
<path fill="#017175" opacity="1.000000" stroke="none" 
	d="
M316.610870,233.534332 
	C316.834290,233.463150 317.080353,233.620148 317.164185,233.906342 
	C317.001923,234.035553 316.633514,233.762497 316.610870,233.534332 
z"/>
<path fill="#F6FBFB" opacity="1.000000" stroke="none" 
	d="
M195.914581,331.819824 
	C199.193054,327.243286 202.292328,326.922516 206.764633,330.187317 
	C211.620361,333.731995 217.084381,332.885071 222.963608,329.523071 
	C215.643158,322.054016 208.754364,314.881622 201.616577,307.966248 
	C200.907349,307.279083 198.559525,307.841309 197.177521,308.365234 
	C190.302551,310.971466 183.342621,312.434479 176.252792,309.575714 
	C161.217575,303.513184 156.024185,287.555908 164.456314,273.759155 
	C164.888535,273.051941 165.350830,272.363098 166.000229,271.352814 
	C163.838608,269.080933 161.733414,266.755646 159.503845,264.556458 
	C157.243439,262.326843 158.039825,260.522919 159.937958,258.592346 
	C161.875412,256.621765 163.833267,255.944107 165.926498,258.160736 
	C167.981750,260.337128 169.888962,262.653290 171.586349,264.593933 
	C176.119873,262.819855 179.672897,260.803192 183.473099,260.073090 
	C191.310883,258.567230 198.267105,261.137085 204.282761,266.263062 
	C206.020813,267.744080 208.534027,269.347565 205.756104,271.820831 
	C203.452576,273.871735 202.023148,278.420502 197.325806,275.150970 
	C194.909286,273.468994 192.155334,271.959167 189.333878,271.262238 
	C186.679642,270.606628 183.736282,271.121674 180.920120,271.121674 
	C180.776505,271.672791 180.632889,272.223907 180.489273,272.775024 
	C187.045013,279.566193 193.553070,286.405212 200.236755,293.068024 
	C200.846725,293.676117 202.658920,293.422424 203.779877,293.102692 
	C206.166748,292.421936 208.435440,291.337128 210.806686,290.589478 
	C221.962555,287.071991 231.236023,289.974243 238.273834,299.115387 
	C244.738113,307.511597 244.905579,316.576782 238.772385,326.518677 
	C238.160583,327.510406 237.512024,328.479431 237.092072,329.130829 
	C236.506470,334.171509 247.805008,335.584320 240.784317,341.797089 
	C234.859558,347.040009 233.957687,337.639557 231.798325,337.453186 
	C224.616882,339.744354 219.288116,342.078400 213.721329,343.053650 
	C207.331680,344.172943 201.694168,341.317078 196.710983,337.324493 
	C194.863541,335.844391 193.355728,334.346710 195.914581,331.819824 
M224.127365,301.894104 
	C219.390427,299.963959 214.847153,300.602234 210.190765,302.741089 
	C216.892914,309.130219 223.378616,315.313019 229.782333,321.417664 
	C234.483322,314.887634 232.863602,307.790131 224.127365,301.894104 
M182.526169,287.974701 
	C179.636719,284.852234 176.747284,281.729767 173.733856,278.473328 
	C169.743210,284.596893 170.182785,289.289093 174.657761,294.463623 
	C179.721069,300.318451 184.535339,301.322845 193.441925,297.145874 
	C189.614838,293.974915 186.309036,291.235870 182.526169,287.974701 
z"/>
<path fill="#0B8F93" opacity="1.000000" stroke="none" 
	d="
M224.487946,302.061279 
	C232.863602,307.790131 234.483322,314.887634 229.782333,321.417664 
	C223.378616,315.313019 216.892914,309.130219 210.190765,302.741089 
	C214.847153,300.602234 219.390427,299.963959 224.487946,302.061279 
z"/>
<path fill="#138B8F" opacity="1.000000" stroke="none" 
	d="
M182.764709,288.235779 
	C186.309036,291.235870 189.614838,293.974915 193.441925,297.145874 
	C184.535339,301.322845 179.721069,300.318451 174.657761,294.463623 
	C170.182785,289.289093 169.743210,284.596893 173.733856,278.473328 
	C176.747284,281.729767 179.636719,284.852234 182.764709,288.235779 
z"/>
</svg>